<?xml version="1.0" encoding="UTF-8"?> <svg xmlns="http://www.w3.org/2000/svg" width="30" height="30" viewBox="0 0 30 30" fill="none"> <circle cx="15" cy="15" r="15" fill="white"></circle> <g clip-path="url(#clip0_233_3473)"> <path d="M22.5638 9.54951L24 8.17551V7.87476H19.0245L15.4785 16.7008L11.4443 7.87476H6.22725V8.17551L7.905 10.1953C8.0685 10.3445 8.154 10.5628 8.13225 10.7825V18.7198C8.184 19.0055 8.091 19.2995 7.89 19.5073L6 21.7978V22.0948H11.3588V21.794L9.46875 19.5073C9.264 19.2988 9.16725 19.01 9.2085 18.7198V11.8543L13.9125 22.0985H14.4593L18.504 11.8543V20.015C18.504 20.2303 18.504 20.2745 18.363 20.4155L16.908 21.8233V22.1248H23.967V21.824L22.5645 20.4508C22.4415 20.3578 22.3778 20.2018 22.404 20.0503V9.95001C22.3778 9.79776 22.4408 9.64176 22.5638 9.54951Z" fill="#A6CFF6"></path> </g> <defs> <clipPath id="clip0_233_3473"> <rect width="18" height="18" fill="white" transform="translate(6 6)"></rect> </clipPath> </defs> </svg> 