<?xml version="1.0" encoding="UTF-8"?> <svg xmlns="http://www.w3.org/2000/svg" width="30" height="30" viewBox="0 0 30 30" fill="none"> <circle cx="15" cy="15" r="15" fill="white"></circle> <g clip-path="url(#clip0_233_3467)"> <path d="M22.9845 11.704C22.9471 10.8539 22.8096 10.2694 22.6126 9.76299C22.4095 9.22541 22.0969 8.74412 21.6874 8.34401C21.2873 7.93768 20.8028 7.62195 20.2715 7.42196C19.7621 7.22502 19.1807 7.08754 18.3306 7.05006C17.4741 7.0094 17.2022 7 15.0299 7C12.8576 7 12.5857 7.0094 11.7324 7.04688C10.8822 7.08437 10.2978 7.22197 9.79143 7.41878C9.25373 7.62195 8.77243 7.93451 8.37233 8.34401C7.966 8.74412 7.65039 9.22859 7.45028 9.75994C7.25334 10.2694 7.11586 10.8507 7.07838 11.7009C7.03772 12.5574 7.02832 12.8293 7.02832 15.0016C7.02832 17.1739 7.03772 17.4458 7.0752 18.2991C7.11269 19.1492 7.25029 19.7337 7.44722 20.2401C7.65039 20.7777 7.966 21.259 8.37233 21.6591C8.77243 22.0654 9.2569 22.3812 9.78826 22.5812C10.2978 22.7781 10.879 22.9156 11.7293 22.9531C12.5825 22.9907 12.8545 23 15.0268 23C17.1991 23 17.471 22.9907 18.3243 22.9531C19.1745 22.9156 19.7589 22.7781 20.2653 22.5812C21.3406 22.1654 22.1907 21.3153 22.6064 20.2401C22.8032 19.7306 22.9408 19.1492 22.9783 18.2991C23.0158 17.4458 23.0252 17.1739 23.0252 15.0016C23.0252 12.8293 23.022 12.5574 22.9845 11.704ZM21.5437 18.2366C21.5093 19.018 21.378 19.4399 21.2686 19.7212C20.9998 20.4183 20.4466 20.9715 19.7495 21.2403C19.4682 21.3497 19.0432 21.481 18.2649 21.5153C17.421 21.5529 17.1679 21.5622 15.0331 21.5622C12.8982 21.5622 12.642 21.5529 11.8011 21.5153C11.0197 21.481 10.5977 21.3497 10.3164 21.2403C9.96957 21.1121 9.65383 20.909 9.39756 20.6433C9.13188 20.3838 8.92871 20.0713 8.80052 19.7244C8.69112 19.4431 8.55987 19.018 8.52556 18.2397C8.48795 17.3958 8.47868 17.1426 8.47868 15.0078C8.47868 12.873 8.48795 12.6167 8.52556 11.776C8.55987 10.9946 8.69112 10.5726 8.80052 10.2913C8.92871 9.9443 9.13188 9.62869 9.40073 9.37229C9.66006 9.10661 9.97262 8.90345 10.3196 8.77537C10.6009 8.66598 11.026 8.53472 11.8043 8.50029C12.6482 8.46281 12.9014 8.45341 15.0361 8.45341C17.1741 8.45341 17.4272 8.46281 18.2681 8.50029C19.0495 8.53472 19.4714 8.66598 19.7527 8.77537C20.0996 8.90345 20.4153 9.10661 20.6716 9.37229C20.9373 9.63174 21.1404 9.9443 21.2686 10.2913C21.378 10.5726 21.5093 10.9976 21.5437 11.776C21.5812 12.6199 21.5906 12.873 21.5906 15.0078C21.5906 17.1426 21.5812 17.3927 21.5437 18.2366Z" fill="#A6CFF6"></path> <path d="M15.0296 10.8914C12.7605 10.8914 10.9194 12.7323 10.9194 15.0015C10.9194 17.2708 12.7605 19.1117 15.0296 19.1117C17.2989 19.1117 19.1398 17.2708 19.1398 15.0015C19.1398 12.7323 17.2989 10.8914 15.0296 10.8914ZM15.0296 17.6677C13.5575 17.6677 12.3634 16.4737 12.3634 15.0015C12.3634 13.5293 13.5575 12.3354 15.0296 12.3354C16.5018 12.3354 17.6958 13.5293 17.6958 15.0015C17.6958 16.4737 16.5018 17.6677 15.0296 17.6677Z" fill="#A6CFF6"></path> <path d="M20.262 10.7288C20.262 11.2587 19.8323 11.6884 19.3023 11.6884C18.7724 11.6884 18.3428 11.2587 18.3428 10.7288C18.3428 10.1988 18.7724 9.76929 19.3023 9.76929C19.8323 9.76929 20.262 10.1988 20.262 10.7288Z" fill="#A6CFF6"></path> </g> <defs> <clipPath id="clip0_233_3467"> <rect width="16" height="16" fill="white" transform="translate(7 7)"></rect> </clipPath> </defs> </svg> 